#!OML:ASF F:\VICON\USERDATA\INSTALL\rory3\rory3.ASF
:FULLY-SPECIFIED
:DEGREES
1248
root -5.35345 17.6162 -1.1242 9.59218 78.3705 -1.11937
lowerback 9.60934 1.20534 1.39225
upperback 3.3248 1.78942 -0.906289
thorax -1.86187 0.936093 -1.91696
lowerneck -4.04289 -17.1562 -15.2459
upperneck 18.7318 -22.9488 7.01586
head 9.12877 -11.3383 2.11116
rclavicle -3.09607e-014 2.46493e-014
rhumerus 85.3629 36.5774 -9.65315
rradius 54.6658
rwrist 22.3845
rhand -5.65298 18.5908
rfingers 7.12502
rthumb 20.1659 -10.3826
lclavicle -3.09607e-014 2.46493e-014
lhumerus -32.8775 21.8777 54.6839
lradius 40.5798
lwrist -10.3521
lhand -4.30775 21.8995
lfingers 7.12502
lthumb 21.4584 50.731
rfemur -31.5665 -6.85184 17.1148
rtibia 37.5273
rfoot -15.0387 -7.59146
rtoes 7.97275
lfemur -18.836 -2.5547 -8.70826
ltibia 27.9774
lfoot -14.7839 0.400276
ltoes -17.3074
1249
root -5.36234 17.6168 -1.04257 9.46762 78.5709 -1.2721
lowerback 9.63791 1.29374 1.43214
upperback 3.36822 1.91439 -0.803208
thorax -1.82958 0.999207 -1.84625
lowerneck -4.18505 -17.3752 -15.1583
upperneck 18.7363 -23.2381 6.98523
head 9.1731 -11.4652 2.02924
rclavicle -2.2736e-014 -1.09487e-014
rhumerus 87.2455 39.0469 -8.71566
rradius 53.1171
rwrist 25.9935
rhand -4.39257 19.0788
rfingers 7.12502
rthumb 21.3769 -9.76204
lclavicle -2.2736e-014 -1.09487e-014
lhumerus -32.4739 21.7426 55.2622
lradius 40.87
lwrist -10.5445
lhand -3.1245 20.9648
lfingers 7.12502
lthumb 22.5945 49.6625
rfemur -31.6222 -6.63745 17.3987
rtibia 37.7503
rfoot -15.302 -7.84714
rtoes 6.88766
lfemur -18.8719 -2.47851 -8.40963
ltibia 27.9257
lfoot -14.5298 0.4501
ltoes -18.5416
1250
root -5.37083 17.6154 -0.967087 9.79309 78.7928 -1.00013
lowerback 9.6707 1.36882 1.4703
upperback 3.3667 2.01918 -0.752506
thorax -1.84532 1.05114 -1.82761
lowerneck -4.2791 -17.5808 -15.1224
upperneck 18.7877 -23.5082 6.94044
head 9.22781 -11.5878 1.95417
rclavicle -5.64176e-014 2.73329e-014
rhumerus 88.3557 41.6069 -8.30126
rradius 51.9452
rwrist 29.2414
rhand -3.38215 19.3856
rfingers 7.12502
rthumb 22.3472 -9.34199
lclavicle -5.64176e-014 2.73329e-014
lhumerus -32.1083 21.4539 55.8227
lradius 41.19
lwrist -10.5045
lhand -3.94305 22.1537
lfingers 7.12502
lthumb 21.8086 50.9449
rfemur -31.7239 -6.59758 17.6175
rtibia 37.9485
rfoot -15.6236 -7.95504
rtoes 7.00937
lfemur -18.9673 -2.53336 -8.19173
ltibia 27.8744
lfoot -14.2288 0.440619
ltoes -18.6429
1251
root -5.37653 17.614 -0.893772 10.1543 79.0238 -0.729712
lowerback 9.64345 1.54692 1.64147
upperback 3.41446 2.27007 -0.835318
thorax -1.76006 1.17921 -2.03424
lowerneck -4.2883 -17.8662 -14.8878
upperneck 18.6501 -23.9618 7.11726
head 9.22539 -11.774 1.90918
rclavicle -2.20154e-014 4.87022e-015
rhumerus 88.6666 44.0271 -8.7915
rradius 50.4749
rwrist 31.8937
rhand -2.89505 19.5297
rfingers 7.12502
rthumb 22.8147 -9.141
lclavicle -2.20154e-014 4.87022e-015
lhumerus -31.3155 20.8715 56.4822
lradius 41.4421
lwrist -10.3849
lhand -4.89703 23.3495
lfingers 7.12502
lthumb 20.8923 52.2445
rfemur -31.8592 -6.66688 17.8535
rtibia 38.1422
rfoot -15.8795 -7.97791
rtoes 7.71164
lfemur -19.0765 -2.81002 -7.91182
ltibia 27.843
lfoot -14.0213 0.447979
ltoes -18.5088
1252
root -5.38089 17.6172 -0.819613 11.1774 79.2803 0.248468
lowerback 9.60546 1.82385 1.75698
upperback 3.54061 2.64636 -1.05994
thorax -1.57451 1.3741 -2.36616
lowerneck -4.23109 -18.2456 -14.3251
upperneck 18.2952 -24.6077 7.43685
head 9.13279 -12.0288 1.85561
rclavicle -6.85807e-015 -1.635e-014
rhumerus 87.8766 46.3666 -10.4622
rradius 48.8562
rwrist 34.1231
rhand -2.85531 19.4719
rfingers 7.12502
rthumb 22.8528 -9.1941
lclavicle -6.85807e-015 -1.635e-014
lhumerus -30.1801 19.9212 57.2096
lradius 41.7245
lwrist -10.2973
lhand -4.65534 23.4539
lfingers 7.12502
lthumb 21.1245 52.3231
rfemur -31.9557 -6.89431 17.9514
rtibia 38.3603
rfoot -16.1332 -7.80208
rtoes 8.05028
lfemur -19.1355 -3.18575 -7.75265
ltibia 27.8194
lfoot -13.8481 0.471426
ltoes -19.6957
1253
root -5.385 17.6147 -0.746868 12.1289 79.5877 1.12677
lowerback 9.54867 1.99634 1.8083
upperback 3.58966 2.87826 -1.17827
thorax -1.47122 1.49357 -2.53714
lowerneck -4.08068 -18.5309 -14.0493
upperneck 18.0074 -25.0904 7.71212
head 9.06186 -12.2304 1.85279
rclavicle -2.94201e-014 -3.77691e-015
rhumerus 86.4535 48.9433 -12.6773
rradius 47.6283
rwrist 35.896
rhand -3.08892 19.2187
rfingers 7.12502
rthumb 22.6286 -9.47487
lclavicle -2.94201e-014 -3.77691e-015
lhumerus -29.4772 19.277 57.7495
lradius 42.0793
lwrist -10.367
lhand -5.20742 23.8937
lfingers 7.12502
lthumb 20.5941 52.8213
rfemur -32.0761 -7.21384 18.1021
rtibia 38.572
rfoot -16.3472 -7.46616
rtoes 10.5179
lfemur -19.2966 -3.42074 -7.62641
ltibia 27.8047
lfoot -13.6089 0.498834
ltoes -20.1507
1254
root -5.39034 17.608 -0.675572 12.9513 79.8107 1.8963
lowerback 9.4833 2.0966 1.83775
upperback 3.63973 3.01319 -1.25503
thorax -1.36997 1.56438 -2.64201
lowerneck -3.99581 -18.7443 -14.0436
upperneck 17.8459 -25.4383 7.95668
head 9.06411 -12.3811 1.87864
rclavicle 3.35449e-014 -2.56432e-014
rhumerus 84.7037 51.5912 -15.3715
rradius 46.4236
rwrist 37.0393
rhand -3.80918 18.7466
rfingers 7.12502
rthumb 21.9372 -10.0296
lclavicle 3.35449e-014 -2.56432e-014
lhumerus -29.0585 18.916 58.1599
lradius 42.5434
lwrist -10.3885
lhand -5.98838 24.3514
lfingers 7.12502
lthumb 19.8435 53.3584
rfemur -32.2113 -7.44794 18.2782
rtibia 38.7846
rfoot -16.6222 -7.06357
rtoes 15.4396
lfemur -19.4605 -3.47413 -7.54373
ltibia 27.7959
lfoot -13.2743 0.594261
ltoes -19.2086
1255
root -5.39566 17.607 -0.605294 13.2612 80.0132 2.15856
lowerback 9.36297 2.14619 1.87791
upperback 3.74637 3.08448 -1.21604
thorax -1.18936 1.60495 -2.62215
lowerneck -4.0148 -18.8952 -14.32
upperneck 17.7339 -25.6723 8.24508
head 9.13455 -12.4845 1.95098
rclavicle 7.10655e-015 -2.61402e-014
rhumerus 82.4951 54.1251 -18.3313
rradius 45.5088
rwrist 37.3044
rhand -4.25896 17.8336
rfingers 7.12502
rthumb 21.5053 -10.9926
lclavicle 7.10655e-015 -2.61402e-014
lhumerus -28.7494 18.795 58.676
lradius 43
lwrist -10.4668
lhand -6.33507 24.4172
lfingers 7.12502
lthumb 19.5102 53.4583
rfemur -32.3281 -7.59157 18.5465
rtibia 38.9828
rfoot -16.849 -6.95163
rtoes 17.5239
lfemur -19.5924 -3.64702 -7.31838
ltibia 27.8119
lfoot -12.9831 0.736082
ltoes -18.501
1256
root -5.40028 17.6063 -0.537631 13.5982 80.2534 2.38293
lowerback 9.23408 2.14064 1.78557
upperback 3.78322 3.07011 -1.07317
thorax -1.09452 1.59757 -2.41406
lowerneck -3.92965 -18.9581 -14.6021
upperneck 17.5009 -25.7771 8.49849
head 9.12687 -12.538 2.05156
rclavicle 7.65321e-015 -2.42517e-014
rhumerus 79.6091 56.6322 -21.6459
rradius 45.0894
rwrist 37.1152
rhand -4.20752 16.8274
rfingers 7.12502
rthumb 21.5547 -11.9931
lclavicle 7.65321e-015 -2.42517e-014
lhumerus -28.7535 18.6186 59.2049
lradius 43.5758
lwrist -10.3997
lhand -6.36549 24.4479
lfingers 7.12502
lthumb 19.481 53.492
rfemur -32.5033 -7.67694 18.7941
rtibia 39.1827
rfoot -17.0556 -7.02956
rtoes 17.2938
lfemur -19.8035 -3.90916 -7.03998
ltibia 27.8501
lfoot -12.6829 0.808882
ltoes -18.7702
1257
root -5.40385 17.604 -0.474854 14.2892 80.4654 3.01196
lowerback 9.22781 2.14125 1.70178
upperback 3.77374 3.0643 -1.02376
thorax -1.10856 1.59312 -2.31557
lowerneck -3.82915 -18.9924 -14.6155
upperneck 17.2592 -25.8366 8.59648
head 9.04885 -12.5697 2.09086
rclavicle 5.87409e-014 -2.78299e-014
rhumerus 75.6072 58.9829 -25.9937
rradius 44.7865
rwrist 36.3196
rhand -4.15202 15.6783
rfingers 7.12502
rthumb 21.608 -13.1361
lclavicle 5.87409e-014 -2.78299e-014
lhumerus -28.7941 18.2542 59.5793
lradius 44.173
lwrist -10.1666
lhand -5.73576 24.3119
lfingers 7.12502
lthumb 20.0864 53.2936
rfemur -32.6195 -7.78149 18.9532
rtibia 39.3515
rfoot -17.2433 -7.06802
rtoes 16.8968
lfemur -19.9856 -4.13877 -6.84537
ltibia 27.9268
lfoot -12.4181 0.791476
ltoes -18.8745
1258
root -5.40644 17.6027 -0.416889 15.2794 80.6489 3.94023
lowerback 9.20707 2.17142 1.60192
upperback 3.79244 3.09672 -0.989506
thorax -1.08354 1.60888 -2.22583
lowerneck -3.80378 -19.0479 -14.6425
upperneck 17.0551 -25.907 8.64192
head 8.99237 -12.6071 2.10477
rclavicle -1.60022e-014 -2.18663e-015
rhumerus 70.5465 60.9203 -31.2146
rradius 44.4994
rwrist 34.6388
rhand -4.52589 14.7112
rfingers 7.12502
rthumb 21.2489 -14.1441
lclavicle -1.60022e-014 -2.18663e-015
lhumerus -28.7468 18.11 60.0004
lradius 44.7211
lwrist -10.0792
lhand -5.66038 24.2933
lfingers 7.12502
lthumb 20.1588 53.2674
rfemur -32.7433 -8.05099 19.097
rtibia 39.5018
rfoot -17.2984 -7.04966
rtoes 16.5195
lfemur -20.1678 -4.38767 -6.71539
ltibia 28.0111
lfoot -12.1907 0.76378
ltoes -19.0377
1259
root -5.40633 17.6017 -0.358649 15.5886 80.7556 4.18716
lowerback 9.14287 2.25217 1.50217
upperback 3.81832 3.1967 -0.869799
thorax -1.02923 1.65775 -2.05205
lowerneck -3.72365 -19.1003 -14.8873
upperneck 16.8976 -25.9902 8.82794
head 8.99525 -12.6511 2.18168
rclavicle -7.95139e-016 -4.37326e-015
rhumerus 64.2992 62.4362 -37.5815
rradius 44.0545
rwrist 33.1244
rhand -5.70802 14.3994
rfingers 7.12502
rthumb 20.113 -14.5794
lclavicle -7.95139e-016 -4.37326e-015
lhumerus -28.7924 18.0224 60.5417
lradius 45.3085
lwrist -10.0836
lhand -6.08632 24.2492
lfingers 7.12502
lthumb 19.7494 53.2659
rfemur -32.8276 -8.1953 19.3103
rtibia 39.6018
rfoot -17.3866 -6.90023
rtoes 17.2194
lfemur -20.3073 -4.49692 -6.50245
ltibia 28.1426
lfoot -12.0014 0.771996
ltoes -19.2153
1260
root -5.4043 17.6011 -0.297164 16.0809 80.7906 4.68059
lowerback 9.09637 2.32633 1.3705
upperback 3.84364 3.28452 -0.835549
thorax -0.983102 1.70097 -1.94824
lowerneck -3.7075 -19.1704 -15.0753
upperneck 16.9315 -26.0915 8.91756
head 9.05588 -12.7002 2.20723
rclavicle 8.44835e-015 9.93923e-016
rhumerus 57.235 63.4378 -44.8003
rradius 43.6244
rwrist 31.7584
rhand -6.93548 14.3111
rfingers 7.12502
rthumb 18.9329 -14.7875
lclavicle 8.44835e-015 9.93923e-016
lhumerus -28.9649 17.7155 60.9375
lradius 45.9796
lwrist -9.97021
lhand -6.42208 24.1406
lfingers 7.12502
lthumb 19.4266 53.1902
rfemur -32.8296 -8.27626 19.4606
rtibia 39.6579
rfoot -17.4957 -6.78803
rtoes 17.4059
lfemur -20.3809 -4.67154 -6.32993
ltibia 28.3214
lfoot -11.8539 0.797085
ltoes -18.9254
1261
root -5.40326 17.5987 -0.237677 15.3375 80.8497 3.81131
lowerback 8.97343 2.36067 1.45688
upperback 3.8043 3.335 -0.742821
thorax -0.954826 1.72509 -1.90061
lowerneck -3.76776 -19.2222 -15.3503
upperneck 17.1658 -26.1416 8.89691
head 9.18916 -12.7293 2.20182
rclavicle -9.93923e-016 -1.43125e-014
rhumerus 49.6356 63.9486 -52.4327
rradius 43.364
rwrist 30.3587
rhand -7.45666 14.0137
rfingers 7.12502
rthumb 18.4316 -15.1331
lclavicle -9.93923e-016 -1.43125e-014
lhumerus -29.3062 17.539 61.2159
lradius 46.7188
lwrist -9.97932
lhand -6.46861 24.0817
lfingers 7.12502
lthumb 19.3818 53.1358
rfemur -32.939 -8.33659 19.8946
rtibia 39.6833
rfoot -17.5485 -6.79779
rtoes 17.1954
lfemur -20.5746 -4.91643 -5.88027
ltibia 28.5031
lfoot -11.7052 0.875458
ltoes -18.4866
